<svg width="711" height="465" viewBox="0 0 711 465" fill="none" xmlns="http://www.w3.org/2000/svg">
<path d="M349.828 12.5293C367.686 -4.4459 395.926 -4.17204 413.448 13.3506L414.203 14.1055L415.024 14.9473C431.73 32.5214 431.73 60.1515 415.024 77.7256L414.203 78.5674L413.448 79.3213L412.605 80.1435C409.222 83.3594 405.467 85.9555 401.481 87.9326C398.854 89.2362 397 91.8111 397 94.7441V134.975C397 138.841 400.134 141.975 404 141.975H576.373C580.285 141.975 583.438 138.767 583.372 134.855L583.359 134.073C583.312 131.254 581.551 128.782 579.054 127.473C575.402 125.559 571.956 123.116 568.828 120.144L567.986 119.322L567.231 118.567C549.709 101.045 549.434 72.8048 566.409 54.9473L567.231 54.1045L567.986 53.3506L568.828 52.5293C586.686 35.5541 614.926 35.828 632.448 53.3506L633.203 54.1055L634.024 54.9473C650.73 72.5214 650.73 100.152 634.024 117.726L633.203 118.567L632.448 119.321L631.605 120.144C627.743 123.815 623.394 126.678 618.773 128.734C616.093 129.927 614.193 132.501 614.242 135.435L614.33 140.623C614.343 141.373 614.954 141.975 615.704 141.975C635.069 141.975 650.766 157.673 650.767 177.037V210.009C650.767 213.875 653.901 217.009 657.767 217.009H694.633C703.153 217.009 710.06 223.916 710.06 232.437C710.06 240.957 703.153 247.864 694.633 247.864H657.767C653.901 247.864 650.767 250.998 650.767 254.864V287.836C650.767 307.201 635.069 322.898 615.704 322.898H494.428C490.562 322.898 487.428 326.032 487.428 329.898V340.067C487.428 343.095 489.398 345.73 492.152 346.987C496.97 349.186 501.484 352.267 505.448 356.231L506.203 356.986L507.024 357.828C523.73 375.402 523.73 403.031 507.024 420.605L506.203 421.447L505.448 422.202L504.605 423.024C487.031 439.73 459.402 439.73 441.828 423.024L440.986 422.203L440.231 421.448C422.709 403.926 422.434 375.686 439.409 357.828L440.231 356.985L440.986 356.23L441.828 355.41C445.004 352.391 448.51 349.919 452.225 347.991C454.782 346.664 456.572 344.123 456.572 341.242V329.898C456.572 326.032 453.438 322.898 449.572 322.898H265.5C261.634 322.898 258.5 326.032 258.5 329.898V369.566C258.5 372.529 260.391 375.124 263.059 376.413C267.536 378.577 271.733 381.516 275.448 385.231L276.203 385.986L277.024 386.828C293.73 404.402 293.73 432.031 277.024 449.605L276.203 450.447L275.448 451.202L274.605 452.024C257.031 468.73 229.402 468.73 211.828 452.024L210.986 451.203L210.231 450.448C192.709 432.926 192.434 404.686 209.409 386.828L210.231 385.985L210.986 385.23L211.828 384.41C215.701 380.728 220.063 377.859 224.698 375.801C227.492 374.56 229.5 371.907 229.5 368.851V329.898C229.5 326.032 226.366 322.898 222.5 322.898H96.7734C77.4088 322.898 61.7109 307.201 61.7109 287.836V254.864C61.7109 250.998 58.5769 247.864 54.7109 247.864H15.4277C6.90733 247.864 8.90619e-05 240.957 0 232.437C4.14644e-05 223.916 6.9073 217.009 15.4277 217.009H54.7109C58.5769 217.009 61.7109 213.875 61.7109 210.009V177.037C61.7111 157.673 77.4089 141.975 96.7734 141.975H117.975C121.841 141.975 124.975 138.841 124.975 134.975V114.908C124.975 111.823 122.93 109.152 120.099 107.928C115.314 105.858 110.813 102.931 106.828 99.1435L105.986 98.3223L105.231 97.5674C87.7089 80.0448 87.4343 51.8048 104.409 33.9473L105.231 33.1045L105.986 32.3506L106.828 31.5293C124.686 14.5541 152.926 14.828 170.448 32.3506L171.203 33.1055L172.024 33.9473C188.73 51.5214 188.73 79.1515 172.024 96.7256L171.203 97.5674L170.448 98.3213L169.605 99.1435C165.99 102.58 161.949 105.309 157.658 107.331C154.952 108.606 153.025 111.218 153.025 114.21V134.975C153.025 138.841 156.159 141.975 160.025 141.975H359.145C363.011 141.975 366.145 138.841 366.145 134.975V95.085C366.145 92.1092 364.238 89.5065 361.553 88.2236C357.344 86.2129 353.381 83.5204 349.828 80.1435L348.986 79.3223L348.231 78.5674C330.709 61.0448 330.434 32.8048 347.409 14.9473L348.231 14.1045L348.986 13.3506L349.828 12.5293ZM255.614 405.065C248.768 398.219 237.667 398.219 230.82 405.065L230.065 405.819C223.219 412.666 223.219 423.768 230.065 430.614L230.82 431.369C237.667 438.215 248.768 438.214 255.614 431.368L256.369 430.613C263.215 423.767 263.215 412.667 256.369 405.82L255.614 405.065ZM485.614 376.065C478.768 369.219 467.667 369.219 460.82 376.065L460.065 376.819C453.219 383.666 453.219 394.768 460.065 401.614L460.82 402.369C467.667 409.215 478.768 409.214 485.614 402.368L486.369 401.613C493.215 394.767 493.215 383.667 486.369 376.82L485.614 376.065ZM240.445 175.989C238.122 175.989 236.238 177.874 236.238 180.197V238.574C236.238 248.539 238.569 257.325 243.232 264.934C247.896 272.542 254.449 278.432 262.892 282.604C271.334 286.777 281.078 288.863 292.122 288.863C303.166 288.863 312.91 286.777 321.353 282.604C329.795 278.432 336.324 272.542 340.938 264.934C345.602 257.325 347.933 248.539 347.933 238.574V180.197C347.933 177.874 346.049 175.989 343.726 175.989H321.585C319.261 175.989 317.377 177.873 317.377 180.197V237.102C317.377 244.808 315.217 250.821 310.897 255.141C306.578 259.411 300.319 261.547 292.122 261.547C283.974 261.547 277.715 259.387 273.347 255.067C268.978 250.748 266.794 244.759 266.794 237.102V180.197C266.794 177.873 264.91 175.989 262.586 175.989H240.445ZM417.134 173.56C406.237 173.56 396.739 174.959 388.64 177.757C380.59 180.506 374.355 184.555 369.938 189.905C365.52 195.207 363.312 201.613 363.312 209.123C363.312 218.793 366.771 226.352 373.692 231.801C380.663 237.2 391.683 240.587 406.752 241.961L427.221 243.876C431.786 244.318 435.345 244.956 437.897 245.79C440.499 246.624 442.34 247.704 443.42 249.029C444.5 250.306 445.039 251.926 445.039 253.89C445.039 257.522 442.904 260.32 438.634 262.283C434.412 264.247 428.522 265.228 420.963 265.229C412.913 265.229 406.433 263.903 401.524 261.252C397.911 259.265 395.441 256.745 394.115 253.693C393.284 251.78 391.585 250.208 389.498 250.208H366.404C364.028 250.208 362.093 252.183 362.461 254.531C363.384 260.431 365.827 265.74 369.79 270.456C374.699 276.297 381.522 280.837 390.26 284.077C398.997 287.268 409.035 288.863 420.374 288.863C431.369 288.863 441.063 287.268 449.457 284.077C457.851 280.887 464.355 276.395 468.969 270.603C473.583 264.761 475.89 258.013 475.89 250.355C475.89 243.974 474.466 238.697 471.619 234.524C468.772 230.352 464.207 227.063 457.925 224.658C451.642 222.253 443.272 220.56 432.817 219.578L410.802 217.442C404.666 216.804 400.371 215.749 397.917 214.276C395.463 212.755 394.235 210.644 394.235 207.944C394.235 204.508 396.199 201.858 400.126 199.993C404.102 198.128 409.575 197.195 416.545 197.195C424.055 197.195 430.019 198.348 434.437 200.655C437.501 202.204 439.641 204.158 440.857 206.516C441.822 208.386 443.517 210.006 445.622 210.006H468.515C470.951 210.006 472.906 207.933 472.414 205.547C471.299 200.143 468.826 195.272 464.993 190.937C460.183 185.439 453.629 181.168 445.334 178.125C437.038 175.082 427.638 173.56 417.134 173.56ZM109.824 175.989C107.075 175.989 105.049 178.581 105.674 181.259C108.024 191.328 112.807 213.725 112.937 229.739C113.074 246.778 108.056 270.716 105.649 281.186C105.035 283.86 107.063 286.433 109.807 286.434H185.903C193.855 286.434 200.58 285.108 206.077 282.457C211.624 279.806 215.797 276.149 218.595 271.486C221.393 266.823 222.791 261.448 222.791 255.361C222.791 248.539 220.803 242.796 216.827 238.133C215.043 236.018 212.863 234.189 210.287 232.647C206.86 230.597 206.148 224.208 208.791 221.214C209.77 220.105 210.633 218.921 211.379 217.664C214.079 213.197 215.429 208.264 215.429 202.864C215.429 197.318 214.152 192.532 211.6 188.507C209.047 184.482 205.341 181.389 200.481 179.229C195.622 177.07 189.805 175.989 183.031 175.989H109.824ZM495.306 175.989C492.982 175.989 491.098 177.873 491.098 180.197V282.226C491.098 284.549 492.982 286.434 495.306 286.434H517.446C519.77 286.434 521.653 284.549 521.653 282.226V248.01C521.653 245.686 523.538 243.802 525.861 243.802H573.92C576.244 243.802 578.127 245.686 578.127 248.01V282.226C578.127 284.549 580.011 286.434 582.335 286.434H604.476C606.799 286.434 608.684 284.549 608.684 282.226V180.197C608.684 177.873 606.799 175.989 604.476 175.989H582.335C580.011 175.989 578.127 177.873 578.127 180.197V212.646C578.127 214.97 576.243 216.853 573.92 216.854H525.861C523.538 216.854 521.653 214.97 521.653 212.646V180.197C521.653 177.874 519.77 175.989 517.446 175.989H495.306ZM175.89 240.194C180.994 240.194 184.921 241.347 187.67 243.654C190.419 245.912 191.794 248.981 191.794 252.858C191.794 256.687 190.541 259.681 188.038 261.841C185.584 264.001 182.172 265.081 177.804 265.081H141.623C139.044 265.081 137.073 262.782 137.465 260.233L139.999 243.762C140.315 241.709 142.081 240.194 144.157 240.194H175.89ZM172.355 197.342C176.135 197.342 179.081 198.3 181.191 200.214C183.351 202.079 184.431 204.533 184.431 207.576C184.431 211.11 183.252 213.957 180.896 216.117C178.54 218.228 175.497 219.283 171.767 219.283H144.046C141.986 219.283 140.229 217.792 139.895 215.759L137.67 202.232C137.249 199.671 139.226 197.342 141.822 197.342H172.355ZM612.614 73.1846C605.768 66.3383 594.667 66.3385 587.82 73.1846L587.065 73.9394C580.219 80.7859 580.219 91.887 587.065 98.7334L587.82 99.4883C594.667 106.334 605.768 106.334 612.614 99.4873L613.369 98.7324C620.215 91.886 620.215 80.7857 613.369 73.9394L612.614 73.1846ZM150.614 52.1846C143.768 45.3383 132.667 45.3385 125.82 52.1846L125.065 52.9394C118.219 59.7859 118.219 70.887 125.065 77.7334L125.82 78.4883C132.667 85.3343 143.768 85.3336 150.614 78.4873L151.369 77.7324C158.215 70.886 158.215 59.7857 151.369 52.9394L150.614 52.1846ZM393.614 33.1846C386.768 26.3383 375.667 26.3385 368.82 33.1846L368.065 33.9394C361.219 40.7859 361.219 51.887 368.065 58.7334L368.82 59.4883C375.667 66.3343 386.768 66.3336 393.614 59.4873L394.369 58.7324C401.215 51.886 401.215 40.7857 394.369 33.9394L393.614 33.1846Z" fill="#50D9E8"/>
</svg>
